#!OML:ASF G:\JayActor3\Patient Classification 1\Patient 1\Session 5\male.ASF
:FULLY-SPECIFIED
:DEGREES
639
root 15.0176 16.9204 -4.54432 603.516 86.1553 605.35
lowerback -0.405562 -1.36671 3.20729
upperback 1.9252 -1.86238 0.153323
thorax 2.10659 -0.869362 -1.67845
lowerneck -8.57947 0.248143 1.9619
upperneck 13.2534 -0.0878537 1.70269
head 5.40746 0.213928 0.207683
rclavicle 3.05631e-015 3.18055e-015
rhumerus -33.5874 -6.1165 -85.3947
rradius 27.7723
rwrist 2.0519
rhand -18.2016 -8.20773
rfingers 7.12502
rthumb 8.07576 -38.0334
lclavicle 3.05631e-015 3.18055e-015
lhumerus -33.2231 8.73643 82.3115
lradius 21.7765
lwrist 13.6879
lhand -16.8393 12.6599
lfingers 7.12502
lthumb 9.39044 42.4307
rfemur -12.5556 3.2899 28.8297
rtibia 27.8438
rfoot -14.6803 -12.1848
rtoes 12.3189
lfemur 1.82415 7.25493 -13.1025
ltibia 55.064
lfoot 16.1558 5.89196
ltoes -0.312142
640
root 15.1251 16.92 -4.53772 604.63 85.9496 606.547
lowerback -0.296938 -1.33532 3.47952
upperback 1.97561 -1.82048 0.198937
thorax 2.0933 -0.842986 -1.78091
lowerneck -8.60287 0.216173 1.9372
upperneck 13.2771 -0.130429 1.71627
head 5.41879 0.193456 0.213033
rclavicle -3.88313e-014 1.66979e-014
rhumerus -33.472 -5.79817 -85.5403
rradius 28.1277
rwrist 1.71197
rhand -18.2275 -8.26077
rfingers 7.12502
rthumb 8.05072 -38.0874
lclavicle -3.88313e-014 1.66979e-014
lhumerus -33.0416 8.60876 82.3856
lradius 21.9677
lwrist 13.9142
lhand -16.8874 12.6633
lfingers 7.12502
lthumb 9.34401 42.4362
rfemur -11.9508 3.25328 29.1541
rtibia 27.6353
rfoot -14.8269 -12.2849
rtoes 11.9499
lfemur 0.599961 6.88362 -12.975
ltibia 56.3677
lfoot 14.5586 5.79559
ltoes -1.92636
641
root 15.2309 16.9183 -4.53181 605.677 85.7687 607.688
lowerback -0.181533 -1.29788 3.73091
upperback 2.03375 -1.76926 0.237701
thorax 2.08549 -0.811932 -1.87863
lowerneck -8.62936 0.185831 1.92866
upperneck 13.3017 -0.171227 1.71561
head 5.43093 0.173669 0.211403
rclavicle -1.54431e-014 2.0276e-014
rhumerus -33.35 -5.48118 -85.6806
rradius 28.4789
rwrist 1.39556
rhand -18.2575 -8.28735
rfingers 7.12502
rthumb 8.02177 -38.1151
lclavicle -1.54431e-014 2.0276e-014
lhumerus -32.8405 8.45836 82.4769
lradius 22.1683
lwrist 14.137
lhand -16.9149 12.703
lfingers 7.12502
lthumb 9.31746 42.4771
rfemur -11.359 3.23048 29.4534
rtibia 27.4636
rfoot -15.0032 -12.3897
rtoes 11.5993
lfemur -0.58632 6.49626 -12.8809
ltibia 57.5015
lfoot 12.9199 5.63434
ltoes -3.56535
642
root 15.3351 16.9152 -4.52635 606.567 85.6227 608.679
lowerback -0.0589633 -1.25666 3.94543
upperback 2.09444 -1.71154 0.266547
thorax 2.0778 -0.778071 -1.96581
lowerneck -8.65972 0.156161 1.93788
upperneck 13.3349 -0.211498 1.69854
head 5.44641 0.154051 0.201789
rclavicle -1.22625e-014 2.20651e-014
rhumerus -33.2229 -5.1736 -85.8128
rradius 28.8125
rwrist 1.10814
rhand -18.2885 -8.26205
rfingers 7.12502
rthumb 7.99188 -38.091
lclavicle -1.22625e-014 2.20651e-014
lhumerus -32.6293 8.28971 82.581
lradius 22.3811
lwrist 14.3516
lhand -16.939 12.7497
lfingers 7.12502
lthumb 9.29416 42.5249
rfemur -10.7888 3.2271 29.7146
rtibia 27.3408
rfoot -15.2185 -12.4995
rtoes 11.296
lfemur -1.73866 6.09778 -12.8347
ltibia 58.4732
lfoot 11.245 5.45486
ltoes -5.18092
643
root 15.4378 16.9104 -4.52123 607.352 85.5188 609.562
lowerback 0.0644109 -1.2107 4.11497
upperback 2.15192 -1.64631 0.284202
thorax 2.06805 -0.741243 -2.03932
lowerneck -8.67944 0.129727 1.95413
upperneck 13.3697 -0.247512 1.67863
head 5.46056 0.136713 0.190414
rclavicle 2.01021e-014 4.57205e-015
rhumerus -33.0968 -4.8802 -85.9334
rradius 29.1281
rwrist 0.850546
rhand -18.3159 -8.1565
rfingers 7.12502
rthumb 7.96541 -37.9864
lclavicle 2.01021e-014 4.57205e-015
lhumerus -32.4162 8.10167 82.6963
lradius 22.6053
lwrist 14.5563
lhand -16.9562 12.7769
lfingers 7.12502
lthumb 9.27762 42.5527
rfemur -10.255 3.25161 29.931
rtibia 27.2768
rfoot -15.4764 -12.6102
rtoes 11.0508
lfemur -2.86983 5.70251 -12.843
ltibia 59.293
lfoot 9.57001 5.30921
ltoes -6.60481
644
root 15.539 16.9038 -4.51614 607.994 85.4494 610.296
lowerback 0.189716 -1.16391 4.24137
upperback 2.20296 -1.57892 0.293445
thorax 2.05189 -0.704299 -2.09738
lowerneck -8.67798 0.10841 1.95996
upperneck 13.3995 -0.276215 1.67336
head 5.46956 0.123381 0.185816
rclavicle 3.44146e-015 -9.93923e-016
rhumerus -32.9724 -4.59469 -86.0468
rradius 29.4294
rwrist 0.615782
rhand -18.3417 -8.01353
rfingers 7.12502
rthumb 7.94056 -37.8444
lclavicle 3.44146e-015 -9.93923e-016
lhumerus -32.2083 7.8973 82.8206
lradius 22.8462
lwrist 14.7581
lhand -16.9847 12.7844
lfingers 7.12502
lthumb 9.25011 42.5614
rfemur -9.76504 3.29929 30.1101
rtibia 27.2775
rfoot -15.7694 -12.7292
rtoes 10.8277
lfemur -3.98707 5.3057 -12.9001
ltibia 59.9736
lfoot 7.88701 5.24127
ltoes -7.82789
645
root 15.6388 16.8955 -4.51121 608.553 85.4082 610.936
lowerback 0.309373 -1.11498 4.33539
upperback 2.24647 -1.50824 0.293983
thorax 2.03215 -0.666489 -2.14647
lowerneck -8.66876 0.0893938 1.95902
upperneck 13.438 -0.30229 1.68124
head 5.48 0.11216 0.186649
rclavicle -6.8705e-015 9.93923e-016
rhumerus -32.8521 -4.30361 -86.1666
rradius 29.7321
rwrist 0.355387
rhand -18.3821 -7.89344
rfingers 7.12502
rthumb 7.90152 -37.7258
lclavicle -6.8705e-015 9.93923e-016
lhumerus -32.0112 7.67202 82.9512
lradius 23.1094
lwrist 14.9642
lhand -17.0259 12.742
lfingers 7.12502
lthumb 9.21037 42.5209
rfemur -9.32637 3.36227 30.258
rtibia 27.343
rfoot -16.0949 -12.8467
rtoes 10.6306
lfemur -5.09679 4.91305 -12.9976
ltibia 60.5244
lfoot 6.13446 5.29159
ltoes -8.90127
646
root 15.7374 16.8852 -4.5064 609.051 85.3828 611.506
lowerback 0.425062 -1.06723 4.40837
upperback 2.28451 -1.43888 0.291309
thorax 2.0095 -0.629886 -2.18732
lowerneck -8.66257 0.073848 1.9481
upperneck 13.4916 -0.323733 1.69907
head 5.4957 0.103751 0.192602
rclavicle 4.42296e-015 -3.97569e-016
rhumerus -32.7303 -4.00067 -86.2923
rradius 30.0355
rwrist 0.068265
rhand -18.4315 -7.81862
rfingers 7.12502
rthumb 7.85384 -37.6527
lclavicle 4.42296e-015 -3.97569e-016
lhumerus -31.8232 7.43371 83.0888
lradius 23.3952
lwrist 15.1749
lhand -17.0602 12.6662
lfingers 7.12502
lthumb 9.17726 42.4465
rfemur -8.93432 3.42898 30.3876
rtibia 27.4686
rfoot -16.4297 -12.9715
rtoes 10.3403
lfemur -6.19761 4.52839 -13.1186
ltibia 60.9559
lfoot 4.32587 5.46698
ltoes -9.88496
647
root 15.8352 16.8729 -4.50201 609.595 85.3587 612.114
lowerback 0.530968 -1.02033 4.48184
upperback 2.31988 -1.37102 0.288376
thorax 1.98969 -0.594015 -2.22908
lowerneck -8.66523 0.0611634 1.93417
upperneck 13.5632 -0.341565 1.71931
head 5.51856 0.097532 0.200108
rclavicle -9.33046e-015 -9.54166e-015
rhumerus -32.6081 -3.68289 -86.4271
rradius 30.3484
rwrist -0.255011
rhand -18.4816 -7.83901
rfingers 7.12502
rthumb 7.80549 -37.6749
lclavicle -9.33046e-015 -9.54166e-015
lhumerus -31.6462 7.18253 83.2312
lradius 23.7066
lwrist 15.3963
lhand -17.0909 12.5633
lfingers 7.12502
lthumb 9.14759 42.3449
rfemur -8.58054 3.48873 30.5145
rtibia 27.6445
rfoot -16.7732 -13.0887
rtoes 9.98242
lfemur -7.28531 4.16098 -13.2426
ltibia 61.2769
lfoot 2.47166 5.76334
ltoes -10.8028
648
root 15.9325 16.8585 -4.49799 610.135 85.3251 612.715
lowerback 0.630905 -0.97642 4.56635
upperback 2.35243 -1.30733 0.286382
thorax 1.97003 -0.560071 -2.27632
lowerneck -8.68474 0.0477393 1.92281
upperneck 13.66 -0.361029 1.73649
head 5.55215 0.0910006 0.206184
rclavicle -2.48481e-015 -1.98785e-015
rhumerus -32.4868 -3.36832 -86.5647
rradius 30.6619
rwrist -0.584504
rhand -18.5175 -7.94148
rfingers 7.12502
rthumb 7.77084 -37.7787
lclavicle -2.48481e-015 -1.98785e-015
lhumerus -31.4835 6.9148 83.3762
lradius 24.0454
lwrist 15.6307
lhand -17.106 12.4942
lfingers 7.12502
lthumb 9.13309 42.2764
rfemur -8.25325 3.52888 30.6476
rtibia 27.859
rfoot -17.1264 -13.1921
rtoes 9.56704
lfemur -8.35573 3.81229 -13.3546
ltibia 61.4946
lfoot 0.594287 6.16723
ltoes -11.5733
649
root 16.0293 16.8419 -4.49429 610.583 85.2653 613.223
lowerback 0.727187 -0.939698 4.67474
upperback 2.38192 -1.25333 0.289206
thorax 1.94845 -0.530637 -2.33222
lowerneck -8.70584 0.0367437 1.91109
upperneck 13.7675 -0.377597 1.75654
head 5.58942 0.0863432 0.213458
rclavicle -5.96354e-016 -2.78299e-015
rhumerus -32.371 -3.067 -86.6972
rradius 30.9717
rwrist -0.894673
rhand -18.5274 -8.08666
rfingers 7.12502
rthumb 7.76129 -37.9242
lclavicle -5.96354e-016 -2.78299e-015
lhumerus -31.3371 6.63811 83.5198
lradius 24.4071
lwrist 15.8697
lhand -17.0998 12.476
lfingers 7.12502
lthumb 9.13901 42.258
rfemur -7.93922 3.55006 30.8023
rtibia 28.0992
rfoot -17.5089 -13.2787
rtoes 9.18464
lfemur -9.4114 3.47887 -13.4342
ltibia 61.6161
lfoot -1.23451 6.64665
ltoes -12.0843
650
root 16.1258 16.8234 -4.49074 610.847 85.1788 613.545
lowerback 0.820809 -0.913337 4.80315
upperback 2.40836 -1.21311 0.297719
thorax 1.92418 -0.507858 -2.39368
lowerneck -8.73079 0.0275824 1.90189
upperneck 13.8816 -0.391654 1.77274
head 5.62943 0.0829234 0.219311
rclavicle -1.4387e-014 -1.59028e-015
rhumerus -32.2565 -2.80171 -86.8122
rradius 31.2666
rwrist -1.12263
rhand -18.4677 -8.25449
rfingers 7.12502
rthumb 7.81892 -38.0899
lclavicle -1.4387e-014 -1.59028e-015
lhumerus -31.2071 6.35661 83.6618
lradius 24.7944
lwrist 16.1203
lhand -17.0869 12.4681
lfingers 7.12502
lthumb 9.15146 42.2495
rfemur -7.63358 3.54784 30.9778
rtibia 28.354
rfoot -17.9246 -13.3487
rtoes 8.86147
lfemur -10.4563 3.15359 -13.4809
ltibia 61.6438
lfoot -2.98233 7.16931
ltoes -12.3836
651
root 16.2223 16.8034 -4.48739 610.925 85.0714 613.678
lowerback 0.910626 -0.895527 4.9467
upperback 2.4323 -1.18426 0.309827
thorax 1.8986 -0.490579 -2.46008
lowerneck -8.75178 0.0183789 1.89342
upperneck 13.993 -0.405617 1.78832
head 5.66795 0.0795068 0.224852
rclavicle -1.25731e-014 1.27222e-014
rhumerus -32.1487 -2.57683 -86.9081
rradius 31.546
rwrist -1.27498
rhand -18.3844 -8.34392
rfingers 7.12502
rthumb 7.89932 -38.1763
lclavicle -1.25731e-014 1.27222e-014
lhumerus -31.0929 6.06682 83.8037
lradius 25.2035
lwrist 16.3829
lhand -17.0658 12.4684
lfingers 7.12502
lthumb 9.17189 42.2489
rfemur -7.32912 3.53094 31.1685
rtibia 28.6153
rfoot -18.377 -13.402
rtoes 8.64068
lfemur -11.4853 2.83939 -13.4981
ltibia 61.5768
lfoot -4.61194 7.69262
ltoes -12.5038
652
root 16.3187 16.7823 -4.48395 610.8 84.948 613.605
lowerback 0.997183 -0.886733 5.09592
upperback 2.45259 -1.1673 0.325043
thorax 1.87025 -0.479313 -2.52658
lowerneck -8.76308 0.0107656 1.87807
upperneck 14.0957 -0.417235 1.81232
head 5.70215 0.0773236 0.234324
rclavicle 1.86361e-015 -6.75868e-015
rhumerus -32.0524 -2.38188 -86.9908
rradius 31.8147
rwrist -1.37263
rhand -18.298 -8.3734
rfingers 7.12502
rthumb 7.98277 -38.2027
lclavicle 1.86361e-015 -6.75868e-015
lhumerus -30.9969 5.77052 83.9434
lradius 25.633
lwrist 16.655
lhand -17.0488 12.4676
lfingers 7.12502
lthumb 9.18823 42.2474
rfemur -7.02777 3.50541 31.3719
rtibia 28.879
rfoot -18.8536 -13.4575
rtoes 8.4935
lfemur -12.4993 2.53156 -13.4918
ltibia 61.4132
lfoot -6.09373 8.18674
ltoes -12.6162
